<svg id="Capa_3" data-name="Capa 3" xmlns="http://www.w3.org/2000/svg" viewBox="0 0 375.13 191.49"><defs><style>.cls-1{fill:#0064ff;}</style></defs><path class="cls-1" d="M296.36,340.28V283.6s20.68,45.19,42.9,60.76C339.26,344.36,310.91,331.09,296.36,340.28Z" transform="translate(-76.02 -157.21)"/><path class="cls-1" d="M76,157.21h66.89l39.32,139.92-11.23,49H145L88.79,166.4S85.72,159.17,76,157.21Z" transform="translate(-76.02 -157.21)"/><path class="cls-1" d="M89.33,323.81c-.57,3.74-3.21,17.06-12.33,22.09a.13.13,0,0,0,.06.25h24.81a.13.13,0,0,0,.06-.25c-9.11-5-11.76-18.35-12.33-22.09A.14.14,0,0,0,89.33,323.81Z" transform="translate(-76.02 -157.21)"/><path class="cls-1" d="M269.81,334.93h0V164.62c0-2.74,3.13-6,4.22-7.06a.2.2,0,0,0-.14-.35H223.75a.2.2,0,0,0-.19.16l-3,11.82a.07.07,0,0,0,0,.05V337.49a19.11,19.11,0,0,1-4.51,8.32.2.2,0,0,0,.15.34h59.22a.2.2,0,0,0,.11-.37C270.32,342.69,269.82,335.05,269.81,334.93Z" transform="translate(-76.02 -157.21)"/><path class="cls-1" d="M410.34,165.76c13.65,10.15,21.59,29.81,23.51,35a.23.23,0,0,0,.45-.08V162.22A.23.23,0,0,0,434,162c-8.92,5.41-20,3.95-23.43,3.31A.23.23,0,0,0,410.34,165.76Z" transform="translate(-76.02 -157.21)"/><path class="cls-1" d="M350.06,157.21c-6.76,2.24-45.34,15.59-52.55,46.73a45.62,45.62,0,0,0-1.15,11A52.87,52.87,0,0,0,302,238.53c10.58,20.82,32.09,27.32,38.38,28.87.9.22,1.8.46,2.7.73l32.54,9.76c2.56.68,27.51,7.69,34.38,28.77a40.61,40.61,0,0,1,1.69,15.75c-1.29,14.17-9.69,23.38-12.58,26.29,4.07-.94,36.94-9.08,48.34-38.3A56.5,56.5,0,0,0,451,285.89,53.51,53.51,0,0,0,444.36,259c-10.78-19.24-30.61-25.17-37.88-26.78-2.32-.51-4.62-1.12-6.91-1.77l-27.95-8a50.88,50.88,0,0,1-20.46-11.23,40,40,0,0,1-11.82-18.46,36.51,36.51,0,0,1-1.36-8.51,34.22,34.22,0,0,1,12.08-27.07Z" transform="translate(-76.02 -157.21)"/></svg>